<svg xmlns="http://www.w3.org/2000/svg" viewBox="0 0 24 24" width="24" height="24" fill="none">
    <defs />
    <path fill="currentColor" d="M13.638,2.015 C14.698,2.367 15.53,3.201 16.367,4.374 C17.2,5.543 18.121,7.172 19.308,9.273 L19.354,9.355 C20.542,11.456 21.462,13.085 22.036,14.406 C22.613,15.734 22.9,16.881 22.671,17.982 C22.44,19.091 21.871,20.1 21.043,20.862 C20.216,21.622 19.091,21.943 17.674,22.097 C16.264,22.25 14.421,22.25 12.049,22.25 L11.951,22.25 C9.579,22.25 7.736,22.25 6.326,22.097 C4.909,21.943 3.784,21.622 2.957,20.862 C2.129,20.1 1.56,19.091 1.329,17.982 C1.1,16.881 1.387,15.734 1.964,14.406 C2.538,13.085 3.458,11.456 4.646,9.355 L4.692,9.272 C5.879,7.172 6.8,5.543 7.633,4.374 C8.47,3.201 9.302,2.367 10.362,2.015 C11.426,1.662 12.574,1.662 13.638,2.015 Z M11.039,11 L11,11 C10.448,11 10,11.448 10,12 C10,12.552 10.448,13 11,13 L11,17 C11,17.552 11.448,18 12,18 C12.552,18 13,17.552 13,17 L13,12.961 L13,12.959 C13,12.759 13,12.522 12.973,12.318 C12.94,12.071 12.851,11.729 12.561,11.439 C12.271,11.149 11.929,11.061 11.682,11.027 C11.478,11 11.241,11 11.041,11 Z M12.004,7 C11.446,7 11,7.448 11,8 C11,8.552 11.446,9 11.995,9 C12.554,9 13,8.552 13,8 C13,7.448 12.554,7 12.004,7 Z" />
</svg>
