<svg xmlns="http://www.w3.org/2000/svg" viewBox="0 0 24 24" width="24" height="24" fill="none">
    <defs />
    <path fill="currentColor" d="M12.75,22.75 C6.813,22.75 2,17.937 2,12 C2,6.063 6.813,1.25 12.75,1.25 C18.687,1.25 23.5,6.063 23.5,12 C23.5,17.937 18.687,22.75 12.75,22.75 Z M16.457,9.707 C16.848,9.317 16.848,8.683 16.457,8.293 C16.067,7.902 15.434,7.902 15.043,8.293 L12.75,10.586 L10.457,8.293 C10.066,7.903 9.433,7.903 9.043,8.293 C8.652,8.684 8.652,9.317 9.043,9.708 L11.335,12 L9.043,14.292 C8.652,14.683 8.652,15.316 9.043,15.707 C9.433,16.097 10.066,16.097 10.457,15.707 L12.75,13.414 L15.043,15.707 C15.434,16.098 16.067,16.098 16.457,15.707 C16.848,15.316 16.848,14.683 16.457,14.293 L14.164,12 Z" />
</svg>
