<svg xmlns="http://www.w3.org/2000/svg" viewBox="0 0 24 24" width="24" height="24" fill="none">
    <defs />
    <path fill="currentColor" d="M1.25,12 C1.25,6.063 6.063,1.25 12,1.25 C17.937,1.25 22.75,6.063 22.75,12 C22.75,17.937 17.937,22.75 12,22.75 C6.063,22.75 1.25,17.937 1.25,12 Z M16.676,8.263 C16.269,7.89 15.636,7.917 15.263,8.324 L10.469,13.554 L8.707,11.793 C8.317,11.402 7.683,11.402 7.293,11.793 C6.902,12.183 6.902,12.817 7.293,13.207 L9.793,15.707 C9.986,15.9 10.249,16.006 10.522,16 C10.794,15.994 11.053,15.877 11.237,15.676 L16.737,9.676 C17.11,9.269 17.083,8.636 16.676,8.263 Z" />
</svg>
