<svg xmlns="http://www.w3.org/2000/svg" viewBox="0 0 24 24" width="24" height="24" fill="none">
    <defs />
    <path fill="currentColor" d="M11.513,9.44 C11.786,9.575 12.018,9.808 12.249,10.04 L12.308,10.099 L20.961,18.751 C21.192,18.982 21.425,19.214 21.56,19.487 C21.813,19.997 21.813,20.596 21.56,21.107 C21.425,21.379 21.132,21.671 20.901,21.901 C20.671,22.132 20.379,22.425 20.107,22.56 C19.596,22.813 18.997,22.813 18.487,22.56 C18.214,22.425 17.982,22.192 17.751,21.961 L9.099,13.308 L9.039,13.249 C8.808,13.018 8.575,12.786 8.44,12.513 C8.187,12.003 8.187,11.404 8.44,10.893 C8.575,10.621 8.868,10.329 9.099,10.099 C9.329,9.868 9.621,9.575 9.893,9.44 C10.404,9.187 11.003,9.187 11.513,9.44 Z M17,1.25 C17.314,1.25 17.594,1.445 17.703,1.74 L17.998,2.536 C18.409,3.645 18.548,3.976 18.786,4.214 C19.024,4.452 19.355,4.592 20.464,5.002 L21.26,5.297 C21.555,5.406 21.75,5.686 21.75,6 C21.75,6.314 21.555,6.594 21.26,6.703 L20.464,6.998 C19.355,7.408 19.024,7.548 18.786,7.786 C18.548,8.024 18.409,8.355 17.998,9.464 L17.703,10.26 C17.594,10.555 17.314,10.75 17,10.75 C16.686,10.75 16.406,10.555 16.297,10.26 L16.002,9.464 C15.592,8.355 15.452,8.024 15.214,7.786 C14.976,7.548 14.645,7.408 13.536,6.998 L12.74,6.703 C12.445,6.594 12.25,6.314 12.25,6 C12.25,5.686 12.445,5.406 12.74,5.297 L13.536,5.002 C14.645,4.592 14.976,4.452 15.214,4.214 C15.452,3.976 15.592,3.645 16.002,2.536 L16.297,1.74 C16.406,1.445 16.686,1.25 17,1.25 Z M6.703,3.74 L6.924,4.337 C7.238,5.185 7.329,5.385 7.472,5.528 C7.615,5.671 7.815,5.762 8.663,6.076 L9.26,6.297 C9.555,6.406 9.75,6.686 9.75,7 C9.75,7.314 9.555,7.594 9.26,7.703 L8.663,7.924 C7.815,8.238 7.615,8.329 7.472,8.472 C7.329,8.615 7.238,8.815 6.924,9.663 L6.703,10.26 C6.594,10.555 6.314,10.75 6,10.75 C5.686,10.75 5.406,10.555 5.297,10.26 L5.076,9.663 C4.762,8.815 4.671,8.615 4.528,8.472 C4.385,8.329 4.185,8.238 3.337,7.924 L2.74,7.703 C2.445,7.594 2.25,7.314 2.25,7 C2.25,6.686 2.445,6.406 2.74,6.297 L3.337,6.076 C4.185,5.762 4.385,5.671 4.528,5.528 C4.671,5.385 4.762,5.185 5.076,4.337 L5.297,3.74 C5.406,3.445 5.686,3.25 6,3.25 C6.314,3.25 6.594,3.445 6.703,3.74 Z M10.16,11.16 C10.007,11.312 9.915,11.405 9.85,11.478 C9.774,11.552 9.667,11.747 9.85,11.929 C9.915,12.003 10.007,12.095 10.16,12.248 L11.778,13.866 L12.866,12.778 L11.248,11.16 C11.095,11.007 11.003,10.915 10.929,10.85 C10.745,10.665 10.552,10.773 10.478,10.85 C10.405,10.915 10.312,11.007 10.16,11.16 Z" />
</svg>
